<?xml version="1.0" encoding="utf-8"?>
<!-- Generator: Adobe Illustrator 18.1.0, SVG Export Plug-In . SVG Version: 6.00 Build 0)  -->
<!DOCTYPE svg PUBLIC "-//W3C//DTD SVG 1.1//EN" "http://www.w3.org/Graphics/SVG/1.1/DTD/svg11.dtd">
<svg version="1.1" id="Layer_1" xmlns="http://www.w3.org/2000/svg" xmlns:xlink="http://www.w3.org/1999/xlink" x="0px" y="0px"
	 viewBox="0 0 1280 800" enable-background="new 0 0 1280 800" xml:space="preserve">
<rect x="-17.1" fill="#01B9AE" width="1322.8" height="805.5"/>
<g opacity="0.1">
	<path fill="#00A69C" d="M716.6,800c-0.8,1.8-1.7,3.6-2.5,5.4c0,0,0,0,0,0c0,0-0.1,0-0.1,0v0c-1-1.8-1.7-3.6-2.5-5.4h-12
		c0.1-1.9,0.3-3.9,0.4-5.8c0,0,0-0.1,0-0.1c0-0.5,0.1-1,0.1-1.5c0-0.5,0-0.9,0-1.4v0c1-4.4,1-8.9,1-13.5c0,0,0,0,0,0v-0.1
		c4-86.6-3.3-191.5-32.9-309.4c0,0,0,0,0,0c-6.8-27-14.8-54.8-24.1-83.2c0,0,0,0,0,0c-2.8-8.4-5.7-16.9-8.7-25.4l0,0
		c-15.5-43.9-34.3-89.1-56.8-135.5l0,0c-1.4-2.8-2.8-5.6-4.2-8.5c-0.3-0.6-0.6-1.3-0.9-1.9c-22.4-45.2-41-86.4-56.1-124
		c0,0,0,0,0-0.1c0,0,0,0,0,0C508.8,68.7,501,48.9,495,30.2V30c0,0,0,0,0,0v0c-3.5-10.3-6.7-20.3-9.7-30h100.3
		c0.8-5.2,1.6-10.4,2.5-15.4c3.7,5,7.6,10.2,11.6,15.4c15.4,20,33.2,41.1,53.5,63.3c5.9,6.5,12.1,13.1,18.5,19.9
		c15.2,16,29.3,33.3,42.5,51.8c6.7,9.4,13.3,19,19.5,29c0,0.1,0.1,0.2,0.2,0.3c8.3,13.5,16,27.5,23.9,41.9c0.1,0.2,0.2,0.4,0.3,0.6
		v0c1,1.8,1.7,3.7,2.6,5.6c0,0,0,0.1,0.1,0.2c0,0-0.1,0-0.1,0C780,251,796,292.5,810,335.7v0c0,0,0,0,0.1,0.1c0.1,0,0.2,0.1,0.2,0.2
		c4.9,14.7,8.6,29.6,13.5,44.7c0.1,0.2,0.1,0.4,0.2,0.6v0c15,54.9,26.2,111.6,34.2,167.6c0,0.1,0,0.1,0,0.2c0,0-0.2,0-0.2,0.1v0
		c9,58.4,14,116.1,17,170v0.2c0,0,0,0,0,0c1,10.2,1,20.2,2,30V762c0,0.2,0,0.3,0,0.5c0,0,0,0.1,0,0.1c1,12.8,1.1,25.3,1.5,37.5
		H716.6z"/>
	<path fill="#007A78" d="M351,769.3c3,10.3,6.5,20.6,9.5,30.7H243.6c-0.4-0.5-0.8-1-1.2-1.6C66.8,564.3,67.5,303.1,67.5,303.1
		c21.1,143.7,93.9,229,152.1,275.7c43.2,34.6,78.4,47.9,78.4,47.9S328,697.8,351,769.3C351,769.3,351,769.3,351,769.3z"/>
	<path fill="#007A78" d="M375.9,0c14.5,69.9,15.4,142,11.2,203.2c-6.2,91.2-23.7,158.3-23.7,158.3s5.8,24.3,15,58.1
		c24.1,89.2,71.1,244.7,94.2,195.3c8.5-18.2,13.8-64.2,13.4-151.6c-0.1-23.1-0.9-45.4-1.9-67c-1.3-28.6-3.2-55.9-6.2-81.9v0
		c-6-63.2-16.1-118.9-27.9-167.5C435.7,87.7,418.9,39,402.2,0H375.9z"/>
	<path fill="#007A78" d="M720.9,308c0,0-23.9,102.5-52.8,160.2c-16.5,32.9-34.7,51.2-51.1,27.6c-2.2-3.2-4.4-7.2-6.6-12.1
		c-11.2-25.2-21.3-73.4-29-154.4c-3.4-36-5.6-69.8-6.8-101.7c-0.2-4-0.3-8-0.4-12c-2.6-86.6,2.6-157.8,11.4-215.5
		c0.8-5.2,1.6-10.4,2.5-15.4c3.7,5,7.6,10.2,11.6,15.4h43.7c2.6,21.2,5.9,42.5,9.8,63.3c6.1,33.1,13.5,65.2,21.1,94.7
		c10,38.7,20.4,72.8,28.8,98.7c1.7,5.2,3.3,10,4.8,14.5C715.8,294.4,720.9,308,720.9,308z"/>
	<path fill="#00968D" d="M503.3,800H242.5c0-0.5-0.1-1-0.1-1.6c-2.8-62.3-9.6-144.9-22.8-219.7c-11.5-65-27.7-124-50.3-158.8
		c-57.6-88.7-115-193-112.2-336.6c0,0,15.9,169.2,221.5,363.6c30.7,29,58.1,59.9,82.4,91.5c0,0,0,0,0,0c0,0,0,0,0,0
		c15.9,20.7,30,41.7,44,62.6v0c40,62.5,69,124.5,90,176.9v0C498,785.5,500.7,792.9,503.3,800z"/>
	<path fill="#00B8AE" d="M1222.9,443.5c0,0-68.4,125.1-112.5,341c-1,5.1-2.1,10.3-3.1,15.5h-31.8l-3.3-90.9c0,0,8.5-48.6,35.8-109.1
		C1131,549,1167.3,489.6,1222.9,443.5z"/>
	<path fill="#00968D" d="M599.5,800H423.7c1.9-58-2.7-125-18.7-199v0c-9-39-20.3-79.8-36-122.3c0,0,0-0.1,0-0.1
		c0-0.1-0.1-0.2-0.2-0.4c-18.5-49.8-42.5-101.9-73.3-155.7C206.9,167.9,179.6,66.4,179.8,0h54.7c16.8,50.2,59.5,117.2,152.6,203.2
		c2.2,2.1,4.5,4.1,6.8,6.2c9.7,8.8,18.9,18,27.7,27.7c0,0,0,0,0.1,0.1c0,0,0,0,0,0.1c21.1,23.2,39.8,48.8,56.3,76.3
		c0.2,0.3,0.4,0.6,0.6,1c2.6,4.3,5.1,8.6,7.5,12.9c0.1,0.2,0.2,0.4,0.3,0.5c0,0,0.2,0,0.2,0c3.9,6.9,7.5,13.9,11.5,21v0l-0.2,0
		c0,0-0.1,0-0.1,0C569.1,488.2,593,662.7,599.5,800z"/>
	<path fill="#00968D" d="M906.9,592.7c-0.7,27.3-2,55.2-4,83.8c0,0.1-0.2,0.3-0.2,0.4c-1,14.7-1.7,29.6-3.7,44.7v0.6
		c-0.1,6.4-1.1,12.9-1.8,19.4c0,0,0,0.1,0,0.1c-0.2,2.2-0.4,4.5-0.6,6.7c0,0.2-0.2,0.3-0.2,0.5c0,0.2,0,0.5-0.1,0.8
		c-0.3,3.9-0.4,7.8-1.3,11.8c0,0.1,0,0.1,0,0.2c0,0,0,0,0,0c-1,12.6-2.7,25.4-4.4,38.3h-8.2l-3.3,12.6l-0.2,0.8v-0.8
		c0-4.2-0.4-8.3-0.5-12.6H716.6c14.8-32.5,31.5-74.8,46.7-126.3c6-20.3,11.7-41.9,17-65c1.4-6,2.7-12.1,4-18.3c0,0,0.2,0,0.2,0
		c10.8-51.2,19.5-108.9,23.5-172.5v0c0,0-0.2,0-0.2-0.1c1.6-26.3,2.2-53.5,2.2-81.8v-0.2c0-54.7-3.5-113.2-11.5-175.2
		c0,0-0.1,0-0.1,0c-3.3-25.7-7.4-52.1-12.4-79l0-0.2c0,0,0,0,0,0c-5-26.5-10.2-53.5-16.8-81.1h47.4c3.8,10,7.5,20.4,11.1,31.1
		c5.3,15.5,10.5,31.7,15.6,48.5c16.1,53.3,30.6,113.7,41.8,181.1c11.7,70.6,19.7,148.8,21.8,234.8
		C907.8,526.9,907.8,559.3,906.9,592.7z"/>
	<path fill="#007A78" d="M495,30.1C495,30.1,495,30.2,495,30.1C495,30.2,495,30.2,495,30.1l0-0.1h0.1C495.1,30,495,30.1,495,30.1z"
		/>
	<path fill="#007A78" d="M567.5,800H352.2c-0.5-9.9-0.2-19.8-1.2-29.6c0,0,0,0,0,0c0-0.3,0-0.7,0-1.1c0,0,0,0,0,0
		c-2-80,1.7-157.2,9.9-230.8c0,0,0.1-0.1,0.1-0.1c0,0,0,0,0,0v0c2-20.2,4.9-40,7.9-59.6c0,0,0,0,0-0.1c0,0,0-0.1,0-0.1
		c0-0.1,0.1-0.2,0.1-0.3c0,0,0,0,0,0c3-19.7,6-39.2,9-58.3v0c0-0.1,0.3-0.2,0.3-0.3c0-0.1,0-0.1,0-0.2
		c11.7-64.3,26.6-125.3,43.2-182.3c0,0,0,0,0,0c0,0,0-0.1,0.1-0.1h0c9.1-31,18.6-61,28.5-89.7c0,0-0.1,0.1-0.1,0.1v0
		c0,0,0.1-0.1,0.1-0.1c0,0,0-0.1,0-0.1c14.4-41.7,29.6-81.1,44.8-117c0,0,0,0,0-0.1c0,0,0,0,0,0c0,0,0,0,0,0s0,0,0,0
		c0,0,0,0.1,0,0.1c0,0,0-0.1,0-0.1c4.3-10.3,8.7-20.2,13-30h33c-9.2,30.3-17.2,60.2-23.9,89.5c0,0,0,0,0,0c0,0-0.1,0-0.1,0.1
		c-19.1,83.6-28,163.2-31,237.8c0,0.2,0,0.4,0,0.5v61.4c0,0,0,0.1,0,0.2C490,560,528.7,700.9,567.5,800z"/>
	<path fill="#007A78" d="M692,840.4L692,840.4c0-0.1,0-0.2,0.1-0.3c0.1,0.1,0.2,0.2,0.3,0.3c0,0,0,0,0,0H692z"/>
	<path fill="#007A78" d="M1135.8,0c-48.6,62.6-87.7,126.4-118.9,189.8c-23.1,47-41.9,93.8-57,139.9c-16,48.6-28,96.4-36.7,142.7
		c-7.8,41.5-13,81.7-16.2,120.3c-2.4,29-3.6,57-4,83.8c0,0.1,0,0.3,0,0.4c-0.2,13.1,0.1,25.9,0.1,38.4c0,0,0,0,0,0
		c0,18.2,1,35.8,2,52.8v0c0,0,0,0,0,0c1,10.9,1.5,21.5,2.3,31.8h-24.9l-3.3,12.6l-0.2,0.8v-0.8c0-4.2-0.4-8.3-0.5-12.6H716.6
		c-0.8,1.8-1.7,3.6-2.5,5.4c0,0,0,0,0,0c0,0-0.1,0-0.1,0v0c-1-1.8-1.7-3.6-2.5-5.4h-12.8c0.3-2,0.8-3.9,1.1-5.8c0,0-0.1-0.1-0.1-0.1
		c0.1-0.5,0.2-1,0.3-1.5c0.8-4.1,2-8.1,2-12.1c0,0,0,0,0,0c0-0.2,0.1-0.3,0.1-0.5c8-44.8,17.5-87.6,27.8-128.3c0,0,0-0.1,0-0.1
		c1.3-5.2,2.8-10.4,4.1-15.5c0,0,0,0,0,0c8.6-32.7,17.8-64.1,27.6-94.2c0,0,0-0.1,0-0.1c14.2-43.9,29.9-85.1,46.1-123.7
		c0,0,0.3,0,0.3,0v0c0,0-0.2,0-0.2-0.1c5.2-12.5,10.4-24.6,15.8-36.6c0.1-0.2,0.1-0.4,0.2-0.6c19.6-43.4,40.2-83.2,61.4-119.8
		c13.2-22.8,26.5-44.3,39.9-64.6c25.9-39.2,52.1-73.9,77.5-104.3c30.4-36.4,59.8-66.8,86.7-91.8H1135.8z"/>
	<path fill="#00A69C" d="M692,840.4c0-0.1,0-0.2,0.1-0.3c0.1,0.1,0.2,0.2,0.3,0.3c0,0,0,0,0,0L692,840.4z"/>
	<path fill="#00A69C" d="M870.7,0c-5.4,22.9-13.9,49.7-27.4,79.6c-11.2,25-25.8,52-44.8,80.7c0,0,0,0,0,0
		c-11.1,16.8-23.7,34.1-38,51.8c0,0.1-0.1,0.1-0.2,0.2c-1.7,2.1-3.5,4.3-5.2,6.4c-0.1,0.1-0.2,0.3-0.3,0.4
		c-14,17-29.6,34.4-46.9,52.1c-6.5,6.7-13.3,13.4-20.3,20.1c-4,3.9-8.1,7.8-12.3,11.7c-17.5,16.3-30.7,35.3-40.1,56.4
		c-13.7,30.7-19.5,65.8-19.6,103.1c0,10.9,0.4,21.9,1.3,33.1c7.6,94.5,46,198.9,84,281.9c0.4,0.8,0.7,1.6,1.1,2.3
		c0.1,0.2,0.1,0.3,0.2,0.5c0,0,0,0,0,0c3.1,6.7,6.1,13.2,9.1,19.6H497.1l-0.8-15.2c0,0-0.3-2.4-1.3-6.9v0
		c-5-20.4-16.9-84.3-22.2-163c0,0,0-0.1-0.1-0.1c0,0,0-0.1,0-0.1c-4.6-67.6-3.6-146,11.4-217.1v0c0-0.1,0-0.2,0.1-0.3
		c0-0.1-0.1-0.1-0.1-0.2v0c0.1-0.2,0.1-0.3,0.2-0.5c0.8-2.3,1.1-4.7,1.7-7c0-0.1,0.1-0.1,0.1-0.2c0,0,0,0,0,0c0,0,0,0,0,0
		c0,0,0-0.1,0.1-0.1c3.3-13.7,7.1-27.2,11.6-40.2h0.4v0l-0.4,0h0.2c7.2-20.9,16-40.6,26.9-58.7c15.2-25.3,32-45.6,49.9-62.7
		c0,0,0,0,0,0c1.2-1.2,2.5-2.4,3.7-3.5l0,0c30.1-27.8,62.9-47,95.9-66c0,0,0,0,0,0h0c13.3-8,26.6-15,39.8-23h0c0,0,0,0,0,0
		c8.8-5,17.5-10.9,26.1-16.8c9.7-6.6,19.3-13.7,28.6-21.5c5.8-4.8,11.5-9.9,17.1-15.4c0.1-0.1,0.1-0.1,0.2-0.2c0,0,0,0,0,0
		c14.7-14.2,28.6-30.5,41.5-50c6.3-9.6,12.4-19.9,18.2-31.1H870.7z"/>
	<path fill="#00968D" d="M1049.8,494C1024.5,618.4,953,716.3,953,716.3l-28.2,65.1L905,768.1l-9.7-6.5l-1.9-1.3l-11.3-7.5l-5.4-3.6
		l-113.5-75.6l-33.2-22.1l-11.7-7.8c0,0,5.8-2.7,15.7-7.9c11.1-5.9,27.4-15,46.2-27.2c3.3-2.2,6.8-4.4,10.2-6.8
		c21.2-14.3,44.8-32,67.5-53c17.4-16,34.2-33.8,49-53.4c5.7-7.5,11.1-15.2,16.1-23.2c26-41.3,42-89.2,36.7-142.7
		c-1.8-18.4-6.2-37.4-13.5-57c-9.9-26.6-16.8-52.1-21.2-76.5C911.3,119.6,922.2,53.9,943.3,0h65.7c-6.1,32.4-7.7,62.7-6.4,91.8
		c1.6,33.6,7.1,65.7,14.2,98c11.5,52.4,27.3,105.4,37.2,165.9C1061.8,403,1058.7,450.1,1049.8,494z"/>
	<path fill="#00968D" d="M898.3,742.7l-1.6,5.9l-0.1,0.5l-0.2,0.8l-3,10.7L882.5,800l-3.3,12.6l-0.2,0.8v-0.8
		c0-4.2-0.4-8.3-0.5-12.6H716.6c-0.8,1.8-1.7,3.6-2.5,5.4c0,0,0,0,0,0c0,0-0.1,0-0.1,0v0c-1-1.8-1.7-3.6-2.5-5.4h-52.3
		c-27.2-43.5-48.5-109.9-56.5-209.6c-3-38.3,0.3-73.5,7.7-106.7c1.6-7.1,3.3-14.1,5.2-21c7.5-26.9,17.3-52.5,28.3-77.7
		c13.8-31.6,29.2-62.4,43.7-93.5c5.4-11.5,10.6-23,15.5-34.7c12.6-29.8,23.5-60.3,30.4-92.6c0-0.1,0-0.2,0.1-0.3
		c2.8-13.4,5-27.1,6.3-41.1c0.1-1.5,0.3-3,0.4-4.6c4.1-48.6,1.9-87.5-3.3-118.2h18.4c7.7,26.2,13.1,58.2,13.4,96.7
		c0.2,31.8-2.7,68.1-11,109.3c0,0.2,0.1,0.4,0.1,0.6v0c-1,4-1.9,8-2.8,12.1c0,0.1-0.1,0.3-0.1,0.4c-3.1,14.1-6.9,28.8-11.2,44
		c-29.9,105.1-13.6,200.7,17.8,278.4c0,0,0,0.1,0.1,0.1c6.9,17.1,14.5,33.4,22.6,48.7c0,0,0,0,0,0c2.1,3.9,4.1,7.8,6.2,11.5
		C819.9,655,853.3,695.4,875,719l0,0c6.7,7.3,12.2,12.9,16.3,16.9l0,0c2.8,2.8,4.8,4.7,6,5.7c0,0,0.1,0.1,0.1,0.1
		C898,742.4,898.3,742.7,898.3,742.7z"/>
	<path fill="#007A78" d="M1108.1,600c-2.6,53.6,0.1,114.5,2.4,184.5c0.2,5.1,0.3,10.3,0.5,15.5H882.5l-3.3,12.6l-0.2,0.8v-0.8
		c0-4.2-0.4-8.3-0.5-12.6H859c4.5-10.3,10.4-22.7,18-37.5c0,0,0-0.1,0.1-0.1c1.6-3.1,3.3-6.3,5-9.5c0,0,0,0,0,0
		c2.8-5.4,5.9-11,9.2-16.9c0,0,0,0,0,0c2.4-4.4,5-8.9,7.7-13.7c0,0,0,0,0,0c0.1-0.2,0.2-0.4,0.3-0.5c0,0,0,0,0,0
		c1.2-2.1,2.7-4.2,3.7-6.3c0,0,0,0,0,0c28-48,68.6-111.9,128.7-195.5c6.2-8.7,12.3-17.3,18.1-25.8c0,0,0,0,0,0c0,0,0,0,0,0
		c161.3-236.2,157.7-395.4,157.7-395.4c19.3,140.4-25.1,259.5-71.5,363.2C1118.1,501.9,1110.6,547.4,1108.1,600z"/>
</g>
</svg>
