<?xml version="1.0" encoding="utf-8"?>
<!-- Generator: Adobe Illustrator 18.1.0, SVG Export Plug-In . SVG Version: 6.00 Build 0)  -->
<!DOCTYPE svg PUBLIC "-//W3C//DTD SVG 1.1//EN" "http://www.w3.org/Graphics/SVG/1.1/DTD/svg11.dtd">
<svg version="1.1" id="Layer_1" xmlns="http://www.w3.org/2000/svg" xmlns:xlink="http://www.w3.org/1999/xlink" x="0px" y="0px"
	 viewBox="0 0 1024 600.9" enable-background="new 0 0 1024 600.9" xml:space="preserve">
<pattern  y="-67.7" width="57" height="57" patternUnits="userSpaceOnUse" id="New_Pattern_2" viewBox="0 -57 57 57" overflow="visible">
	<g>
		<polygon fill="none" points="0,-57 57,-57 57,0 0,0 		"/>
		<polyline fill="#ED4C54" points="57,-57 57,0 30.3,0 30.3,0 26.9,0 26.9,0 0,0 0,-57 27,-57 		"/>
		<polygon fill="#DE3C44" points="57,-30 57,-27 0,-27 0,-30 		"/>
		<polygon fill="#DE3C44" points="30,-57 30,0 27,0 27,-57 		"/>
	</g>
</pattern>
<pattern  y="-67.7" width="49.7" height="49.7" patternUnits="userSpaceOnUse" id="New_Pattern_4" viewBox="12.4 -62.1 49.7 49.7" overflow="visible">
	<g>
		<polygon fill="none" points="12.4,-62.1 62.1,-62.1 62.1,-12.4 12.4,-12.4 		"/>
		<g>
			<path fill="#ED4C54" d="M58.5-12.4c0,4.9-3.9,8.8-8.8,8.8s-8.8-3.9-8.8-8.8s3.9-8.8,8.8-8.8S58.5-17.3,58.5-12.4z"/>
			<polygon fill="none" points="62.1,0 37.3,0 37.3,-24.8 62.1,-24.8 			"/>
		</g>
		<g>
			<path fill="#ED4C54" d="M33.6-12.4c0,4.9-3.9,8.8-8.8,8.8s-8.8-3.9-8.8-8.8s3.9-8.8,8.8-8.8S33.6-17.3,33.6-12.4z"/>
			<polygon fill="none" points="37.3,0 12.4,0 12.4,-24.8 37.3,-24.8 			"/>
		</g>
		<g>
			<path fill="#ED4C54" d="M70.9-37.3c0,4.9-3.9,8.8-8.8,8.8s-8.8-3.9-8.8-8.8s3.9-8.8,8.8-8.8S70.9-42.1,70.9-37.3z"/>
			<polygon fill="none" points="74.5,-24.8 49.7,-24.8 49.7,-49.7 74.5,-49.7 			"/>
		</g>
		<g>
			<path fill="#ED4C54" d="M46.1-37.3c0,4.9-3.9,8.8-8.8,8.8s-8.8-3.9-8.8-8.8s3.9-8.8,8.8-8.8S46.1-42.1,46.1-37.3z"/>
			<polygon fill="none" points="49.7,-24.8 24.8,-24.8 24.8,-49.7 49.7,-49.7 			"/>
		</g>
		<g>
			<path fill="#ED4C54" d="M21.2-37.3c0,4.9-3.9,8.8-8.8,8.8s-8.8-3.9-8.8-8.8s3.9-8.8,8.8-8.8S21.2-42.1,21.2-37.3z"/>
			<polygon fill="none" points="24.8,-24.8 0,-24.8 0,-49.7 24.8,-49.7 			"/>
		</g>
		<g>
			<path fill="#ED4C54" d="M58.5-62.1c0,4.9-3.9,8.8-8.8,8.8s-8.8-3.9-8.8-8.8c0-4.9,3.9-8.8,8.8-8.8S58.5-67,58.5-62.1z"/>
			<polygon fill="none" points="62.1,-49.7 37.3,-49.7 37.3,-74.5 62.1,-74.5 			"/>
		</g>
		<g>
			<path fill="#ED4C54" d="M33.6-62.1c0,4.9-3.9,8.8-8.8,8.8s-8.8-3.9-8.8-8.8c0-4.9,3.9-8.8,8.8-8.8S33.6-67,33.6-62.1z"/>
			<polygon fill="none" points="37.3,-49.7 12.4,-49.7 12.4,-74.5 37.3,-74.5 			"/>
		</g>
	</g>
</pattern>
<rect y="0" fill="#1A1A1A" width="1024" height="454.9"/>
<g>
	<rect y="454.9" fill="#ED5867" width="1024" height="146"/>
	<rect y="454.9" fill="url(#New_Pattern_4)" width="1024" height="146"/>
</g>
<rect x="47" y="-7.7" fill="url(#New_Pattern_2)" width="2" height="0"/>
<g>
	<g>
		<path fill="#57300B" d="M266.3,250.6c0,0,14.1-101.6-48.4-143.1s-33.8-58.1-33.8-58.1s-45.3,7,10.3,77.8s18.9,124.3,18.9,124.3
			L266.3,250.6z"/>
		<path fill="#603813" d="M128.5,189.8c0,0-46.4-11.1-55.2-49c0,0-0.2,44.9,50.5,81.8S128.5,189.8,128.5,189.8z"/>
		<path fill="#754C24" d="M144.1,149.6c0,0,18.1-44.1-7.6-73.4c0,0,36.5,26,36.9,88.8S144.1,149.6,144.1,149.6z"/>
		<path fill="#42210B" d="M229.7,141.5c0,0-32.6-54.1-14.3-79.2c0,0-28.4,20.2-19.1,82.4S229.7,141.5,229.7,141.5z"/>
		<path fill="#754C24" d="M134.9,261.1c0,0-19.1-5.8-19.4-36.7c-0.1-15.1-4.1-52.4-17.8-65.8s-27.5-29.2-26.8-51
			c0,0,3.8,25.6,53,55.1s62.3,71.6,62.3,71.6l-36.5,32.2L134.9,261.1z"/>
		<path fill="#603813" d="M313.8,202.3c0,0,6.9-25,36.1-40.2c0,0-26.4,30.5-33.8,80.9L313.8,202.3z"/>
		<path fill="#42210B" d="M199.8,250.7c0,0,14.1-88.1-48.3-124.1s-33.8-50.4-33.8-50.4s-45.3,6.1,10.3,67.5s18.9,107.8,18.9,107.8
			L199.8,250.7z"/>
		<path fill="#42210B" d="M218.7,227.8c0,0,68.7-63,5.9-167.1c0,0,71.7,55.5,43.1,167.1H218.7z"/>
		<path fill="#57300B" d="M212.1,240.3c0,0-86.9-80.1,0-184.1c0,0-101.3,89-61.9,200.6L212.1,240.3z"/>
		<path fill="#57300B" d="M282.9,246.6c0,0-47.3-92.7,66.9-166.9c0,0-104.9,33.3-128.4,149.2L282.9,246.6z"/>
		<path fill="#603813" d="M175.9,213.8c0,0-17.8-49,6.8-74.9s67.2-17.6,84.8-56.9c0,0,5.9,26.7-48.7,58.8
			c-43.3,25.4,25.6,95.3,25.6,95.3l-67.1-7.3L175.9,213.8z"/>
		<path fill="#603813" d="M285.2,203.4c0,0,31.3-27.1,24.2-54.6s-26.8-44.7,5.8-80.4c0,0-57.1,24.5-31.6,67.8
			c20.2,34.4-54.6,56.2-54.6,56.2l49.4,20.8L285.2,203.4z"/>
		<path fill="#754C24" d="M201.4,184.3c-3.6-28.2,29.1-45.4,32.8-70.8s-10.6-33.8-10.6-33.8s30.1,13.9,11.6,55s37,72.6,37,72.6
			l-7.9,18C264.3,225.4,208.8,243,201.4,184.3z"/>
		<path fill="#754C24" d="M311.1,272.5c0,0,12.4-8.7,12.4-39.7s-5.5-52.3,5.5-68s21.7-33.8,17.1-55c0,0,0.9,25.9-42.1,63.8
			s-44.9,49-44.9,49l38.4,57.8L311.1,272.5z"/>
		<path fill="#F2E6E1" d="M318.9,294c-1.4,28.6-28.7,21.2-28.7,21.2s-18.5,31.3-73,32.3c-54.5,0.9-67.6-36.9-67.6-36.9l0-0.3
			c-7.1,0.9-24.6,0.9-25.7-21.8c-1.3-26.5,18.5-24.5,21.4-24c3.8-15.2,19.2-55.4,75.1-39.6c0,0,0.1,0.2,0.2,0.7
			c0.1-0.4,0.2-0.7,0.2-0.7c68.5-19.4,76.2,45.2,76.2,45.2S320.2,265.4,318.9,294z"/>
		<g>
			<path fill="#ED4C54" d="M293.3,247.6l-24.7-17.8c-4.3-1.8-6.3-6.7-4.5-11l0.2-0.4c1.8-4.3,6.7-6.3,11-4.5l30.5,4
				c4.3,1.8,6.3,6.7,4.5,11l-6,14.2C302.5,247.4,297.5,249.4,293.3,247.6z"/>
			<path fill="#ED4C54" d="M238.5,224.6l30,5.2c4.3,1.8,9.2-0.2,11-4.5l0.2-0.4c1.8-4.3-0.2-9.2-4.5-11l-24.2-19
				c-4.3-1.8-9.2,0.2-11,4.5l-6,14.2C232.2,217.8,234.3,222.8,238.5,224.6z"/>
			<path fill="#DE3C44" d="M272.9,235.4l-10.3-4.3c-1.1-0.5-1.7-1.8-1.2-2.9l7.6-18.1c0.5-1.1,1.8-1.7,2.9-1.2l10.3,4.3
				c1.1,0.5,1.7,1.8,1.2,2.9l-7.6,18.1C275.3,235.3,274,235.9,272.9,235.4z"/>
		</g>
	</g>
	<g>
		<path fill="#F2E6E1" d="M260.8,342.5c12.6,15.4,39.1,28.3,39.1,28.3s8.7,6.5,26.1,5.7s15.5,12.2,4.1,16.6c0,0,19.1-3.2,19.1,5.3
			c0,8.5-5.2,9.7-11.7,9.3c0,0,11.4,13,4.5,16.2c-6.9,3.2-16.2-6.5-16.2-6.5s1.6,15.8-4.9,16.2c-6.5,0.4-23.9-29.2-47.8-32.8
			c-23.9-3.6-17.4,3.2-8.5,30c8.9,26.7-52.6,6.9-52.6,6.9v-95.2C212,342.5,253.1,333.1,260.8,342.5z"/>
		<path fill="#F2E6E1" d="M177.6,341.6c-14.6,12.9-45.7,29.2-45.7,29.2s-8.6,6.5-26,5.7s-15.4,12.2-4.1,16.6c0,0-19.1-3.2-19.1,5.3
			c0,8.5,5.3,9.7,11.7,9.3c0,0-11.3,13-4.5,16.2c6.9,3.2,16.2-6.5,16.2-6.5s-1.6,15.8,4.9,16.2c6.5,0.4,23.9-29.2,47.8-32.8
			c23.9-3.6,16.9,3.2,8,30c-8.9,26.7,52.2,6.9,52.2,6.9v-96.1C219,341.6,185.3,334.7,177.6,341.6z"/>
		<path fill="#F2E6E1" d="M266.4,433.2c0,28.6-27.2,48.6-50.8,48.6s-49.1-20-49.1-48.6c0-28.6,20.3-60.7,50-60.5
			C248.4,372.9,266.4,404.6,266.4,433.2z"/>
		<path fill="#F2E6E1" d="M225.9,480.6c0,0,5.9,18,2.6,39c-3.2,21.1,0.5,29.2,17.3,26.5c0,0,7.6,3.7,15.1,0.5
			c0,0,26.5,7.6,22.7-13.5c-3.8-21.1-2.6-29.1-2.9-38.9c-0.4-15.7-5.2-48.1-14.4-61C257.2,420.3,225.9,480.6,225.9,480.6z"/>
		<path fill="#F2E6E1" d="M207.9,480.6c0,0-5.9,18-2.6,39c3.2,21.1-0.5,29.2-17.3,26.5c0,0-7.6,3.7-15.1,0.5c0,0-26.5,7.6-22.7-13.5
			s2.6-29.1,2.9-38.9c0.4-15.7,5.2-48.1,14.4-61C176.6,420.3,207.9,480.6,207.9,480.6z"/>
	</g>
	<polygon fill="#ED4C54" points="217,435.2 209,424.1 216.4,412.8 223.7,423.3 	"/>
</g>
<text transform="matrix(1 0 0 1 383.3309 77.2645)" fill="#ED4C54" font-family="'Raleway'" font-size="41">Oops! Something went wrong. </text>
<text transform="matrix(1 0 0 1 424.5948 135.086)" fill="#F2E6E1" font-family="'Raleway'" font-size="38">Error 404 - Page Not Found</text>
<ellipse fill="#1A1A1A" cx="-210.9" cy="83.2" rx="33" ry="33.8"/>
<ellipse fill="#E6E6E6" cx="-204.1" cy="172.8" rx="39.7" ry="22.3"/>
</svg>
