<?xml version="1.0" encoding="utf-8"?>
<!-- Generator: Adobe Illustrator 18.1.0, SVG Export Plug-In . SVG Version: 6.00 Build 0)  -->
<!DOCTYPE svg PUBLIC "-//W3C//DTD SVG 1.1//EN" "http://www.w3.org/Graphics/SVG/1.1/DTD/svg11.dtd">
<svg version="1.1" id="Layer_1" xmlns="http://www.w3.org/2000/svg" xmlns:xlink="http://www.w3.org/1999/xlink" x="0px" y="0px"
	 viewBox="0 0 50 50" enable-background="new 0 0 50 50" xml:space="preserve">
<g>
	<path fill="#D0D2D3" d="M32.8,32.3c0,0,2-14.1-6.7-19.9s-4.7-8.1-4.7-8.1s-6.3,1,1.4,10.8s2.6,17.3,2.6,17.3L32.8,32.3z"/>
	<path fill="#F1F1F2" d="M13.6,23.8c0,0-6.5-1.5-7.7-6.8c0,0,0,6.2,7,11.4S13.6,23.8,13.6,23.8z"/>
	<path fill="#E6E7E8" d="M15.8,18.2c0,0,2.5-6.1-1.1-10.2c0,0,5.1,3.6,5.1,12.4S15.8,18.2,15.8,18.2z"/>
	<path fill="#E6E7E8" d="M27.7,17.1c0,0-4.5-7.5-2-11c0,0-4,2.8-2.7,11.5S27.7,17.1,27.7,17.1z"/>
	<path fill="#E6E7E8" d="M14.5,33.7c0,0-2.7-0.8-2.7-5.1c0-2.1-0.6-7.3-2.5-9.2s-3.8-4.1-3.7-7.1c0,0,0.5,3.6,7.4,7.7s8.7,10,8.7,10
		l-5.1,4.5L14.5,33.7z"/>
	<path fill="#E6E7E8" d="M39.4,25.5c0,0,1-3.5,5-5.6c0,0-3.7,4.3-4.7,11.3L39.4,25.5z"/>
	<path fill="#F1F1F2" d="M23.5,32.3c0,0,2-12.3-6.7-17.3s-4.7-7-4.7-7s-6.3,0.8,1.4,9.4s2.6,15,2.6,15L23.5,32.3z"/>
	<path fill="#E6E7E8" d="M26.2,29.1c0,0,9.6-8.8,0.8-23.3c0,0,10,7.7,6,23.3H26.2z"/>
	<path fill="#F1F1F2" d="M25.2,30.8c0,0-12.1-11.2,0-25.6c0,0-14.1,12.4-8.6,27.9L25.2,30.8z"/>
	<path fill="#E6E7E8" d="M35.1,31.7c0,0-6.6-12.9,9.3-23.2c0,0-14.6,4.6-17.9,20.8L35.1,31.7z"/>
	<path fill="#D0D2D3" d="M20.2,27.1c0,0-2.5-6.8,0.9-10.4s9.4-2.4,11.8-7.9c0,0,0.8,3.7-6.8,8.2c-6,3.5,3.6,13.3,3.6,13.3l-9.3-1
		L20.2,27.1z"/>
	<path fill="#F1F1F2" d="M35.4,25.7c0,0,4.4-3.8,3.4-7.6s-3.7-6.2,0.8-11.2c0,0-7.9,3.4-4.4,9.4c2.8,4.8-7.6,7.8-7.6,7.8l6.9,2.9
		L35.4,25.7z"/>
	<path fill="#E6E7E8" d="M23.8,23c-0.5-3.9,4.1-6.3,4.6-9.9c0.5-3.5-1.5-4.7-1.5-4.7s4.2,1.9,1.6,7.7s5.2,10.1,5.2,10.1l-1.1,2.5
		C32.5,28.7,24.8,31.2,23.8,23z"/>
	<path fill="#D0D2D3" d="M39,35.3c0,0,1.7-1.2,1.7-5.5s-0.8-7.3,0.8-9.5s3-4.7,2.4-7.7c0,0,0.1,3.6-5.9,8.9s-6.2,6.8-6.2,6.8
		l5.3,8.1L39,35.3z"/>
	<path fill="#F4F4F4" d="M40.1,38.3c-0.2,4-4,3-4,3s-2.6,4.4-10.2,4.5c-7.6,0.1-9.4-5.1-9.4-5.1l0,0c-1,0.1-3.4,0.1-3.6-3
		c-0.2-3.7,2.6-3.4,3-3.3c0.5-2.1,2.7-7.7,10.5-5.5c0,0,0,0,0,0.1c0-0.1,0-0.1,0-0.1C36,26,37.1,35,37.1,35S40.3,34.3,40.1,38.3z"/>
</g>
</svg>
