<?xml version="1.0" encoding="utf-8"?>
<!-- Generator: Adobe Illustrator 18.1.0, SVG Export Plug-In . SVG Version: 6.00 Build 0)  -->
<!DOCTYPE svg PUBLIC "-//W3C//DTD SVG 1.1//EN" "http://www.w3.org/Graphics/SVG/1.1/DTD/svg11.dtd">
<svg version="1.1" id="Layer_1" xmlns="http://www.w3.org/2000/svg" xmlns:xlink="http://www.w3.org/1999/xlink" x="0px" y="0px"
	 viewBox="0 0 50 50" enable-background="new 0 0 50 50" xml:space="preserve">
<path fill="#05CED3" d="M48.4,48.6L48.4,48.6c-0.4,0.4-0.9,0.4-1.3,0L1.3,2.8C1,2.5,1,1.9,1.3,1.5l0,0c0.4-0.4,0.9-0.4,1.3,0
	l45.8,45.8C48.7,47.7,48.7,48.2,48.4,48.6z"/>
<path fill="#05CED3" d="M48.7,1.3L48.7,1.3c0.4,0.4,0.4,0.9,0,1.3L3,48.3c-0.4,0.4-0.9,0.4-1.3,0l0,0c-0.4-0.4-0.4-0.9,0-1.3
	L47.5,1.3C47.8,0.9,48.4,0.9,48.7,1.3z"/>
</svg>
